<?xml version="1.0" encoding="UTF-8"?>
<svg width="200px" height="200px" viewBox="0 0 200 200" version="1.1" xmlns="http://www.w3.org/2000/svg" xmlns:xlink="http://www.w3.org/1999/xlink">
    <!-- Generator: sketchtool 40.1 (33804) - http://www.bohemiancoding.com/sketch -->
    <title>5B48A407-382F-4D40-9874-5F0128FF6C2A</title>
    <desc>Created with sketchtool.</desc>
    <defs>
        <rect id="path-1" x="0" y="0" width="200" height="200"></rect>
    </defs>
    <g id="Page-1" stroke="none" stroke-width="1" fill="none" fill-rule="evenodd">
        <g id="New---Left-Nav" transform="translate(-2266.000000, -513.000000)">
            <g id="default_avatar_l" transform="translate(2266.000000, 513.000000)">
                <mask id="mask-2" fill="white">
                    <use xlink:href="#path-1"></use>
                </mask>
                <g id="Mask">
                    <use fill="#96C0DD" fill-rule="evenodd" xlink:href="#path-1"></use>
                    <use xlink:href="#path-1"></use>
                </g>
                <path d="M129.462747,142.171508 C129.589813,142.000632 123.476501,136.933779 123.476501,137.134373 L123.476501,124.103201 C130.535753,115.626253 133.917135,104.125537 136.176096,92.6768281 C136.409051,93.1968863 137.122036,93.5534976 137.489117,93.6203622 C138.830375,93.8581031 140.729314,90.6040248 141.442298,86.3321183 C142.134105,82.193941 141.759965,78.687263 140.496358,78.2340694 C142.423534,68.1969465 141.082276,52.1642957 137.150273,39.824058 C133.182973,27.312944 109.357996,22.1123622 102.298744,21.7334627 L102.298744,25.9385045 L102.976432,25.9385045 L102.341099,25.9385045 L101.529285,25.9385045 L102.298744,25.9385045 L102.298744,21.7334627 C95.2394912,22.1123622 71.3227441,27.312944 67.3554443,39.824058 C63.4163814,52.1642957 62.2092493,68.1969465 64.1223067,78.2340694 C62.8587005,78.687263 62.2727825,82.193941 62.9645893,86.3321183 C63.684633,90.6040248 65.3082611,93.8581031 66.6636375,93.6203622 C67.0307187,93.5534976 68.1672583,93.1968863 68.4002136,92.6768281 C70.6662336,104.125537 74.061734,115.626253 81.1209864,124.103201 L81.1209864,137.134373 C81.1209864,136.933779 74.9511998,142.000632 75.0923849,142.171508 C53.5757836,162.817818 30.2167174,161.606825 17.0300339,175.499808 C13.7121853,178.984198 10.7402401,186.094136 8.47422004,194.860831 C10.8531881,198.293215 13.3380449,201.547294 16.0417386,204.69736 C38.7160573,226.84441 68.9367168,240.492222 102.305803,240.492222 C135.681948,240.492222 165.930845,226.84441 188.605163,204.70479 C191.301798,201.547294 193.885484,198.300645 196.264452,194.860831 C193.998432,186.101566 191.231205,178.984198 187.920416,175.499808 C174.733732,161.606825 150.986407,162.817818 129.462747,142.171508 Z" id="Fill-3" fill="#BBDAEF" mask="url(#mask-2)"></path>
            </g>
        </g>
    </g>
</svg>
